<?xml version="1.0" encoding="iso-8859-1"?>
<!-- Generator: Adobe Illustrator 19.0.0, SVG Export Plug-In . SVG Version: 6.00 Build 0)  -->
<svg version="1.1" id="Capa_1" xmlns="http://www.w3.org/2000/svg" xmlns:xlink="http://www.w3.org/1999/xlink" x="0px" y="0px"
	 viewBox="0 0 511.99 511.99" style="enable-background:new 0 0 511.99 511.99;" xml:space="preserve">
<g>
	<g>
		<path d="M465.057,364.802c-0.375-0.292-38.396-29.594-38.396-98.135c0-67.896,36.875-96.969,38.396-98.135
			c2.688-2.01,4.271-5.177,4.271-8.531c0-58-45.021-92.427-46.938-93.865c-2.427-1.813-5.521-2.521-8.49-1.927
			c-35.073,7.01-62.396,3.917-81.219-9.219c-19.938-13.906-23.333-34.365-23.458-35.167c-0.5-3.458-2.667-6.469-5.792-8.031
			C302.464,11.312,279.578,0,255.995,0s-46.469,11.313-47.438,11.792c-3.083,1.542-5.25,4.552-5.781,7.969
			c-0.135,0.865-3.531,21.323-23.469,35.229c-18.813,13.135-46.156,16.229-81.219,9.219c-2.99-0.604-6.083,0.094-8.49,1.927
			C87.682,67.573,42.661,102,42.661,160c0,3.354,1.583,6.521,4.271,8.531c0.375,0.292,38.396,29.594,38.396,98.135
			c0,67.896-36.875,96.969-38.396,98.135c-2.688,2.01-4.271,5.177-4.271,8.531c0,2.396,0.531,59.063,46.937,93.865
			c2.385,1.781,5.531,2.25,8.51,1.74c2.948-0.563,5.646-2.552,7.219-5.115c0.094-0.156,10.24-15.823,54.667-15.823
			c46.917,0,86.729,58.667,87.135,59.26c1.979,2.958,5.302,4.729,8.865,4.729c3.563,0,6.885-1.771,8.865-4.729
			c0.406-0.594,40.219-59.26,87.135-59.26c44.104,0,54.417,15.438,54.458,15.438c1.417,2.833,4.01,4.885,7.094,5.615
			c3.042,0.719,6.302,0.052,8.844-1.854c46.406-34.802,46.938-91.469,46.938-93.865
			C469.328,369.979,467.745,366.813,465.057,364.802z M416.922,443.979c-9.563-7.823-28.635-17.313-64.927-17.313
			c-43.865,0-79.969,37.24-96,56.938c-16.031-19.698-52.135-56.938-96-56.938c-36.292,0-55.365,9.49-64.927,17.313
			c-24.479-22.948-29.677-54.344-30.781-66.042c11.854-11.135,42.375-46.146,42.375-111.271c0-65.427-30.813-100.458-42.542-111.427
			c1.979-36.083,25.875-60.99,34.885-69.146c38.896,6.917,70.135,2.229,92.948-13.906c20.115-14.24,27.823-33.552,30.563-43.26
			c6.781-2.802,20.333-7.594,33.479-7.594c13.146,0,26.698,4.792,33.479,7.594c2.74,9.708,10.448,29.021,30.563,43.26
			C342.849,88.323,374.089,93,412.984,86.094c9.01,8.156,32.906,33.063,34.885,69.146c-11.729,10.969-42.542,46-42.542,111.427
			c0,65.125,30.521,100.135,42.375,111.271C446.599,389.635,441.401,421.031,416.922,443.979z"/>
	</g>
</g>
<g>
</g>
<g>
</g>
<g>
</g>
<g>
</g>
<g>
</g>
<g>
</g>
<g>
</g>
<g>
</g>
<g>
</g>
<g>
</g>
<g>
</g>
<g>
</g>
<g>
</g>
<g>
</g>
<g>
</g>
</svg>
